# xmcd
#
# Track frame offsets:
#	165
#	12115
#	34341
#	51018
#	62488
#	83105
#	92609
#	101349
#	118670
#	126070
#	138881
#	154374
#
# Disc length: 2384 seconds
#
# Revision: 0
# Processed by: cddbd v1.5PL3 Copyright (c) Steve Scherf et al.
# Submitted via: dBpowerAMP V4.0
#
DISCID=91094e0c
DTITLE=Linford Detweiler - Unspoken Requests
DYEAR=2004
DGENRE=Instrumental
TTITLE0=Mary's Hymn
TTITLE1=Beneath Abraham's Stars
TTITLE2=Winter Wedding
TTITLE3=We Dream An Ocean In Ohio
TTITLE4=Dancing Close Again (In Karin's Warm Kitchen)
TTITLE5=Elroy Levon's Forever Home
TTITLE6=Her Black Fedora Grin
TTITLE7=On The Train Home To Hartville
TTITLE8=Please, Let's Try Again
TTITLE9=Emma Grace Takes Off Her Glasses
TTITLE10=Making Up A Bedtime Story
TTITLE11=Screendoor Music
EXTD=
EXTT0=
EXTT1=
EXTT2=
EXTT3=
EXTT4=
EXTT5=
EXTT6=
EXTT7=
EXTT8=
EXTT9=
EXTT10=
EXTT11=
PLAYORDER=
